<svg id="Layer_1" enable-background="new 0 0 511 511" height="512" viewBox="0 0 511 511" width="512" xmlns="http://www.w3.org/2000/svg"><g><g><path d="m509.762 266.524c.152-3.53.238-7.212.238-11.024 0-140.833-114.167-255-255-255-98.131 0-158.574 55.347-158.741 55.441-3.787 17.481-10.374 42.85-10.374 61.465 0 55.684 18.579 107.185 49.736 149.118z" fill="#2896ff"/><path d="m90.459 110.179c0-18.615 2.013-36.757 5.801-54.239-.006.005-.011.01-.017.014-58.646 46.721-96.243 118.738-96.243 199.546l144.012 11.024c-33.56-43.178-53.553-97.424-53.553-156.345z" fill="#1e87dc"/></g><path d="m107.689 388.736-23.256 57.22c45.063 40.148 104.466 64.544 169.567 64.544 91.383 0 172.401-48.335 217.471-121.764z" fill="#a0a0a5"/><g><path d="m84.434 445.956h11.203c9.399 0 17.019-7.62 17.019-17.019v-41.439h-76.878c13.245 21.849 29.679 41.55 48.656 58.458z" fill="#50555a"/><g><path d="m423.018 387.497v47.071h60.687c.62-1.765.974-3.655.974-5.631v-41.439h-61.661z" fill="#50555a"/></g><g><path d="m440.135 433.185c-9.399 0-17.019-7.62-17.019-17.019v-28.669h-27.611v41.439c0 9.399 7.62 17.019 17.019 17.019h55.136c7.93 0 14.573-5.431 16.463-12.771h-43.988z" fill="#373c41"/></g><g><g><path d="m367.622 70.764h-225.129c-16.522 0-31.231 10.467-36.645 26.077l-42.698 123.102h382.886l-41.684-122.855c-5.34-15.737-20.112-26.324-36.73-26.324z" fill="#afe6ff"/></g><g><path d="m150.602 176.747 36.759-105.984h-44.869c-16.522 0-31.231 10.467-36.645 26.077l-42.697 123.103h382.886l-14.656-43.196z" fill="#73c8f0"/></g></g><g><path d="m216.07 178.231 64.823-95.332h-65.735l-64.823 95.332z" fill="#d2f0ff"/></g><g><path d="m190.164 216.33 26.914-39.583h-65.735l-26.914 39.583z" fill="#afe6ff"/></g><g><path d="m308.1 178.231 64.823-95.332h-54.734l-64.823 95.332z" fill="#d2f0ff"/></g><g><path d="m309.109 176.747h-54.734l-26.915 39.583h54.734z" fill="#afe6ff"/></g><g><g><path d="m37.135 225.663h36.519v-52.347h-36.519c-14.455 0-26.173 11.718-26.173 26.173 0 14.456 11.718 26.174 26.173 26.174z" fill="#be1423"/></g><g><path d="m435.533 225.663h36.519c14.455 0 26.173-11.718 26.173-26.173 0-14.455-11.718-26.173-26.173-26.173h-36.519z" fill="#dc1428"/></g></g><g><path d="m392.9 101.169 34.023 100.274 12.891 14.843 14.088-10.708-38.066-112.191c-5.749-16.944-21.654-28.343-39.547-28.343h-68.952l-23.501 5.368-18.884-5.368h-22.115l-21.193 5.72-21.193-5.72h-19.633v24.22h19.633l21.193-4.76 21.193 4.76h22.115l21.193-6.365 21.193 6.365h68.952c7.518 0 14.194 4.784 16.61 11.905z" fill="#ff3c3c"/></g><g><path d="m99.672 201.443h-17.166l34.818-100.386c2.449-7.06 9.101-11.793 16.573-11.793h47.38c6.688 0 12.11-5.422 12.11-12.11 0-6.688-5.422-12.11-12.11-12.11h-47.38c-17.789 0-33.626 11.269-39.455 28.077l-45.972 132.542h51.202z" fill="#dc1428"/></g><g><path d="m357.717 326.699c1.882 3.742 3.012 7.938 3.209 12.336.672 14.997-13.244 27.77-27.77 27.77h-188.89v.302c0 23.662 19.182 42.843 42.843 42.843h275.769c26.577 0 48.121-21.545 48.121-48.121v-40.809z" fill="#373c41"/></g><path d="m145.305 366.805h-120.784c7.433 15.297 16.343 29.745 26.558 43.145h142.092c-24.896 0-45.375-18.907-47.866-43.145z" fill="#212426"/><g><path d="m439.095 323.684v86.266h23.784c26.577 0 48.121-21.544 48.121-48.121v-40.809z" fill="#373c41"/></g><path d="m492.897 232.689-42.195-31.723h-143.365l-21.193 6.4-21.193-6.4h-22.115l-21.193 9.042-21.193-9.042h-99.34v138.923h408.05c1.192-3.933 1.84-8.103 1.84-12.425v-58.516c0-14.199-6.665-27.664-18.103-36.259z" fill="#ff3c3c"/><g fill="#dc1428"><path d="m465.153 370.544c3.253.035 6.84.028 0 0z"/><path d="m145.242 338.347c-23.64 0-42.804-19.164-42.804-42.805v-58.516c0-14.153 6.611-27.483 17.854-36.06h-61.807l-42.195 31.723c-9.023 6.784-14.399 13.512-16.29 22.811.689 38.265 8.848 79.152 24.616 111.524 5.044 2.09 10.575 3.245 16.375 3.245 61.401 0 114.159.007 159.458.019l18.652-8.353 23.734 8.367c7.619.003 14.988.006 22.115.009l21.193-8.377 21.193 8.399c109.042.066 146.844.165 157.816.21-3.461-.037-6.544-.123 3.708-.281 19.529-.296 35.962-13.692 40.74-31.916h-364.358z"/></g><g><path d="m200.45 200.966h42.386v169.302h-42.386z" fill="#fff"/></g><g><path d="m264.951 200.966h42.386v169.302h-42.386z" fill="#fff"/></g><g><path d="m336.833 256.696h-145.888v29.909h166.433c.943-2.452 1.466-5.114 1.466-7.898 0-12.157-9.854-22.011-22.011-22.011z" fill="#dc1428"/></g><g><path d="m214.282 285.617c-12.156 0-22.011-9.854-22.011-22.011 0-2.415.395-4.737 1.113-6.911h-21.031c-12.156 0-22.011 9.855-22.011 22.011 0 12.156 9.854 22.011 22.011 22.011h164.48c9.741 0 17.999-6.331 20.897-15.1z" fill="#be1423"/></g><g><g><path d="m129.587 313.297h-77.768c-8.97 0-16.241-7.271-16.241-16.241v-13.118c0-8.97 7.271-16.241 16.241-16.241h41.629c12.064 0 32.145 23.216 36.139 34.599z" fill="#dc1428"/></g><g><path d="m379.6 313.297h77.768c8.97 0 16.241-7.271 16.241-16.241v-13.118c0-8.97-7.271-16.241-16.241-16.241h-41.629c-12.064 0-32.145 23.216-36.139 34.599z" fill="#dc1428"/></g></g><g><g><path d="m129.587 302.296h-77.768c-8.97 0-16.241-7.271-16.241-16.241v-13.118c0-8.97 7.271-16.241 16.241-16.241h41.629c12.064 0 22.812 7.619 26.806 19.002z" fill="#afe6ff"/></g><g><path d="m379.6 302.296h77.768c8.97 0 16.241-7.271 16.241-16.241v-13.118c0-8.97-7.271-16.241-16.241-16.241h-41.629c-12.064 0-22.812 7.619-26.806 19.002z" fill="#afe6ff"/></g></g><g><path d="m335.722 315.733h-92.329v12h92.329c3.313 0 6-2.687 6-6s-2.686-6-6-6z" fill="#50555a"/></g><g><path d="m335.722 338.735h-92.329v12h92.329c3.313 0 6-2.687 6-6s-2.686-6-6-6z" fill="#50555a"/></g><g><path d="m246.721 327.733h-73.256c-3.313 0-6-2.687-6-6s2.687-6 6-6h73.256c3.313 0 6 2.687 6 6s-2.686 6-6 6z" fill="#373c41"/></g><g><path d="m246.721 350.735h-73.256c-3.313 0-6-2.687-6-6s2.687-6 6-6h73.256c3.313 0 6 2.687 6 6s-2.686 6-6 6z" fill="#373c41"/></g><g><path d="m200.45 65.044h42.386v24.22h-42.386z" fill="#fff"/></g><g><path d="m264.951 65.044h42.386v24.22h-42.386z" fill="#fff"/></g></g></g></svg>