<svg id="Capa_1" enable-background="new 0 0 502 502" height="512" viewBox="0 0 502 502" width="512" xmlns="http://www.w3.org/2000/svg" xmlns:xlink="http://www.w3.org/1999/xlink"><linearGradient id="SVGID_1_" gradientUnits="userSpaceOnUse" x1="246.378" x2="246.378" y1="453.798" y2="-2.752"><stop offset="0" stop-color="#74d2e8"/><stop offset="1" stop-color="#baeaf5"/></linearGradient><linearGradient id="lg1"><stop offset="0" stop-color="#4bb370"/><stop offset=".199" stop-color="#4eb575"/><stop offset=".4501" stop-color="#56bc85"/><stop offset=".7278" stop-color="#64c89f"/><stop offset="1" stop-color="#76d6bf"/></linearGradient><linearGradient id="SVGID_2_" gradientUnits="userSpaceOnUse" x1="105.854" x2="105.854" xlink:href="#lg1" y1="387.476" y2="76.589"/><linearGradient id="SVGID_3_" gradientUnits="userSpaceOnUse" x1="385.362" x2="385.362" xlink:href="#lg1" y1="363.713" y2="77.065"/><linearGradient id="lg2"><stop offset="0" stop-color="#4e5660"/><stop offset="1" stop-color="#64768d"/></linearGradient><linearGradient id="SVGID_4_" gradientUnits="userSpaceOnUse" x1="394.56" x2="486.224" xlink:href="#lg2" y1="423.072" y2="423.072"/><linearGradient id="SVGID_5_" gradientUnits="userSpaceOnUse" x1="351.978" x2="351.978" xlink:href="#lg2" y1="502.835" y2="344.846"/><g><path d="m365.279 424.281c65.71-92.027 86.584-194.275 43.542-352.739-41.904-44.068-101.095-71.542-166.705-71.542-65.139 0-123.947 27.085-165.795 70.599-43.269 141.532 11.923 309.489 109.93 382.567 17.886 4.463 36.596 6.847 55.865 6.847 45.31-.001 87.555-13.11 123.163-35.732z" fill="url(#SVGID_1_)"/><path d="m104.96 218.484c0-33.45 68.573-17.44 68.573-84.468 0-47.618-48.376-60.151-97.212-63.418-39.76 41.344-64.211 97.518-64.211 159.408 0 107.76 74.111 198.198 174.141 223.159 8.596-19.48 13.348-44.733 13.348-77.294 0-115.624-94.639-123.936-94.639-157.387z" fill="url(#SVGID_2_)"/><path d="m408.82 71.542c-23.97 10.695-38.272 26.71-61.719 26.71-35.192 0-46.923 24.364-46.923 45.118s-1.805 29.778 29.778 29.778 82.116-22.566 82.116 6.764c0 29.331-2.675 50.094-47.358 50.094-44.684 0-66.112 21.241-66.112 66.112 0 33.414 24.899 97.574 66.677 128.163 64.221-40.799 106.843-112.556 106.843-194.275 0-61.418-24.076-117.212-63.302-158.464z" fill="url(#SVGID_3_)"/><g><path d="m457.766 502c-8.222 0-16.442-3.136-22.715-9.409l-93.607-93.608c-12.545-12.546-12.545-32.886 0-45.431 12.547-12.545 32.886-12.545 45.431 0l93.607 93.608c12.545 12.546 12.545 32.886 0 45.431-6.273 6.272-14.496 9.409-22.716 9.409z" fill="url(#SVGID_4_)"/><path d="m364.1 448.651 14.952-36.096c4.012-9.686 11.708-17.382 21.394-21.394l36.096-14.952c25.154-10.419 25.154-46.05 0-56.469l-135.404-56.086c-31.242-12.941-62.535 18.351-49.594 49.594l56.086 135.404c10.42 25.154 46.05 25.154 56.47-.001z" fill="url(#SVGID_5_)"/></g><path d="m225.906 342.809 47.657 115.054c11.924-1.631 23.553-4.184 34.822-7.569-.259-.54-.52-1.078-.755-1.643l-49.389-119.236c-3.699-8.929-13.935-13.169-22.865-9.471-8.929 3.699-13.169 13.936-9.47 22.865z" fill="#17c5d9"/><g><ellipse cx="154.23" cy="190.754" fill="#eaadcd" rx="14.936" ry="12.003"/><ellipse cx="330.001" cy="190.754" fill="#eaadcd" rx="14.936" ry="12.003"/><circle cx="179.837" cy="161.136" fill="#fff" r="29.618"/><ellipse cx="191.802" cy="161.136" fill="#3b3b44" rx="17.652" ry="17.652" transform="matrix(.23 -.973 .973 .23 -9.09 310.786)"/><circle cx="304.394" cy="161.136" fill="#fff" r="29.618"/><g fill="#3b3b44"><ellipse cx="316.298" cy="161.136" rx="17.652" ry="17.652" transform="matrix(.707 -.707 .707 .707 -21.299 270.852)"/><ellipse cx="242.116" cy="183.588" rx="13.252" ry="17.352"/></g></g><g fill="#dff7fa"><path d="m322.195 64.173c-1.389 0-2.798-.291-4.143-.904-2.89-1.317-5.842-2.572-8.776-3.729-5.138-2.025-7.661-7.832-5.637-12.971 2.025-5.137 7.832-7.661 12.971-5.637 3.258 1.284 6.535 2.677 9.741 4.139 5.025 2.292 7.241 8.224 4.949 13.248-1.679 3.68-5.309 5.854-9.105 5.854z"/><path d="m273.556 49.392c-.536 0-1.08-.044-1.627-.133-18.392-3.011-37.358-3.196-55.6-.628-5.459.771-10.526-3.038-11.297-8.508-.771-5.469 3.039-10.526 8.508-11.297 20.227-2.851 41.243-2.639 61.619.694 5.45.893 9.146 6.033 8.254 11.484-.803 4.904-5.045 8.388-9.857 8.388z"/></g></g></svg>